<svg width="160" height="30" viewBox="0 0 115 18" fill="none" xmlns="http://www.w3.org/2000/svg">
<path fill-rule="evenodd" clip-rule="evenodd" d="M16.7587 1L16.7695 0.9375H13.0547L11.1211 12.1172L6.72656 0.9375H3.09375L0.140625 18H3.85547L5.80078 6.83203L10.1953 18H13.8047L14 16.876V18L14.0117 18L16.9424 1H16.7587ZM98.2719 12.5274C98.3266 12.7774 98.3305 13.0664 98.2836 13.3945C98.2289 13.7461 98.1234 14.0664 97.9672 14.3555C97.8188 14.6367 97.6117 14.8633 97.3461 15.0352C97.0883 15.1992 96.768 15.2813 96.3852 15.2813C95.9555 15.2813 95.6156 15.207 95.3656 15.0586C95.1156 14.9102 94.932 14.7109 94.8148 14.4609C94.6977 14.2031 94.6273 13.9102 94.6039 13.582C94.5883 13.2461 94.5922 12.8984 94.6156 12.5391L90.9828 12.5274C90.9438 13.3477 91.0336 14.1016 91.2523 14.7891C91.4789 15.4766 91.8109 16.0781 92.2484 16.5938C92.6938 17.1016 93.2406 17.5 93.8891 17.7891C94.0781 17.8701 94.2745 17.9404 94.4784 18L89.2414 18L92.1837 1H92.5H96.4919L96.4672 1.00781C95.7875 1.21875 95.1664 1.53516 94.6039 1.95703C94.0492 2.37891 93.6 2.89844 93.2563 3.51562C92.9203 4.125 92.725 4.8125 92.6703 5.57812C92.6313 6.26563 92.7055 6.87891 92.893 7.41798C93.0805 7.95704 93.3617 8.43751 93.7367 8.85938C94.1117 9.28126 94.5453 9.66016 95.0375 9.9961C95.5297 10.3242 96.0609 10.625 96.6313 10.8984C96.9047 11.0391 97.1547 11.1875 97.3813 11.3438C97.6156 11.5 97.807 11.6758 97.9555 11.8711C98.1117 12.0586 98.2172 12.2774 98.2719 12.5274ZM100.329 1C100.649 1.11432 100.943 1.26146 101.213 1.44141C101.916 1.91016 102.44 2.54297 102.784 3.33984C103.135 4.12891 103.295 5.01172 103.264 5.98828H99.6664C99.6742 5.63672 99.6547 5.28516 99.6078 4.93359C99.5688 4.57422 99.4477 4.27734 99.2445 4.04297C99.0492 3.80078 98.7289 3.67578 98.2836 3.66797C97.9086 3.66016 97.5766 3.74609 97.2875 3.92578C97.0063 4.10547 96.7758 4.34375 96.5961 4.64062C96.4164 4.92969 96.2992 5.25 96.2445 5.60156C96.2055 5.89062 96.2328 6.15235 96.3266 6.38673C96.4281 6.61329 96.5688 6.82032 96.7484 7.00782C96.9281 7.18751 97.1313 7.35157 97.3578 7.50001C97.5844 7.64845 97.8109 7.77345 98.0375 7.87501C98.6391 8.16407 99.1859 8.48048 99.6781 8.82423C100.17 9.16798 100.588 9.5586 100.932 9.9961C101.284 10.4258 101.541 10.918 101.705 11.4727C101.87 12.0274 101.928 12.6602 101.881 13.3711C101.819 14.1602 101.627 14.8594 101.307 15.4688C100.995 16.0781 100.577 16.5938 100.053 17.0156C99.5375 17.4297 98.9438 17.7422 98.2719 17.9531C98.2521 17.9594 98.2323 17.9656 98.2124 17.9717C98.1807 17.9814 98.1489 17.9908 98.117 18H107.5C112 18 117.5 15 112 9C111.844 8.83014 111.692 8.66349 111.542 8.5H103L99.5 6H109.254C105.84 2.31232 104.24 1 101 1H100.329ZM88.5626 1H83.9948L86.6516 12L88.5626 1ZM80.4064 1L77.4758 18H76.0508L79.0048 1H80.4064ZM75.3837 1L72.4297 18H72.0359L69.8292 1H75.3837ZM66.4516 1L58.8448 17.0283L57.3036 10.9785C57.8922 10.6669 58.3944 10.316 58.8102 9.92579C59.3258 9.44923 59.7242 8.89063 60.0055 8.25001C60.2867 7.60157 60.4586 6.85157 60.5211 6.00001C60.607 4.96875 60.4703 4.08203 60.1109 3.33984C59.7594 2.58984 59.2242 2.01172 58.5055 1.60547C57.957 1.29204 57.3178 1.09021 56.5879 1H66.4516ZM50.5963 1L47.6656 18H42.9945L45.434 3.96094H49.4984L50.0149 1H50.5963ZM34.2369 1H30.1915L31.3391 6.6797L34.2369 1ZM27.6125 18H31.7727L30.6242 12.1406L27.6125 18ZM35.8039 18H39.3734L41.8129 3.96094H37.8383L38.297 1.33101L33.3313 9.56251L35.8039 18ZM51.2867 18L52.3529 11.8594H53.8084L55.1656 18H51.2867ZM62.3445 18H68.2625L68.0308 14.6484H63.7338L62.3445 18ZM81.0969 18H85.7023L83.0305 6.93751L81.0969 18ZM23.8045 17.1532L24.1836 14.9883H18.1541L18.8984 10.6875H23.9727L24.4766 7.78126H19.4014L20.0627 3.96094H26.0938L26.4622 1.84856L28.632 9.23438L23.8045 17.1532ZM67.8225 11.6367H64.9822L67.4165 5.76389L67.8225 11.6367ZM52.874 8.85805L54.4859 8.8711C54.9859 8.86329 55.4 8.7422 55.7281 8.50782C56.0641 8.27345 56.3219 7.96485 56.5016 7.58204C56.6891 7.19923 56.8102 6.77735 56.8648 6.31641C56.9117 5.99609 56.9312 5.65625 56.9234 5.29688C56.9234 4.9375 56.8375 4.63281 56.6656 4.38281C56.5016 4.13281 56.2047 3.99609 55.775 3.97266L53.7242 3.96094L52.874 8.85805Z"/>
</svg>
